<svg width="50" height="67" viewBox="0 0 50 67" fill="none" xmlns="http://www.w3.org/2000/svg">
<path d="M25.18 66.9C10.06 66.9 1.15 58.44 0.79 45.84H15.91C15.91 50.7 19.6 53.94 25.27 53.94C30.85 53.94 34.45 50.79 34.45 45.84C34.45 41.16 31.21 38.64 26.62 38.64H18.16V27.3H25.36C30.67 27.3 33.55 24.42 33.55 20.19C33.55 15.78 30.31 13.26 25.36 13.26C20.05 13.26 16.72 16.23 16.45 21H1.24C1.6 8.4 11.23 0.299998 25.99 0.299998C39.76 0.299998 49.03 7.14 49.03 18.03C49.03 24.69 45.43 30.09 40.12 32.16V32.7C46.42 34.5 49.93 40.17 49.93 47.28C49.93 59.07 39.85 66.9 25.18 66.9Z" fill="#264256"/>
</svg>
