<?xml version="1.0" encoding="UTF-8"?>
<svg id="Calque_1" data-name="Calque 1" xmlns="http://www.w3.org/2000/svg" viewBox="0 0 263.6 289.12">
  <defs>
    <style>
      .cls-1 {
        fill: #1d1d1b;
        stroke-width: 0px;
      }
    </style>
  </defs>
  <path fill="#D1B06B" class="cls-1" d="M206.79,26.05v-15.41c0-5.88-4.76-10.64-10.64-10.64s-10.64,4.76-10.64,10.64v14.88h-107.42v-14.88c0-5.88-4.76-10.64-10.64-10.64s-10.64,4.76-10.64,10.64v15.41C24.82,30.11,0,57.48,0,90.56v133.51c0,35.87,29.18,65.05,65.05,65.05h133.51c35.87,0,65.05-29.18,65.05-65.05V90.56c0-33.08-24.82-60.45-56.82-64.51ZM56.82,47.58v14.09c0,5.88,4.76,10.64,10.64,10.64s10.64-4.76,10.64-10.64v-14.88h107.42v14.88c0,5.88,4.76,10.64,10.64,10.64s10.64-4.76,10.64-10.64v-14.09c20.21,3.86,35.54,21.66,35.54,42.98v9.51H21.28v-9.51c0-21.32,15.33-39.12,35.54-42.98ZM198.56,267.84H65.05c-24.13,0-43.77-19.63-43.77-43.77v-102.72h221.05v102.72c0,24.14-19.63,43.77-43.77,43.77Z"/>
  <rect fill="#D1B06B" class="cls-1" x="50.53" y="147.77" width="33.85" height="33.85" rx="8.48" ry="8.48"/>
  <rect fill="#D1B06B"  class="cls-1" x="114.88" y="147.77" width="33.85" height="33.85" rx="8.48" ry="8.48"/>
  <rect fill="#D1B06B"  class="cls-1" x="179.23" y="147.77" width="33.85" height="33.85" rx="8.48" ry="8.48"/>
  <rect fill="#D1B06B"  class="cls-1" x="50.53" y="203.71" width="33.85" height="33.85" rx="8.48" ry="8.48"/>
  <rect fill="#D1B06B"  class="cls-1" x="114.88" y="203.71" width="33.85" height="33.85" rx="8.48" ry="8.48"/>
  <rect fill="#D1B06B"  class="cls-1" x="179.23" y="203.71" width="33.85" height="33.85" rx="8.48" ry="8.48"/>
</svg>