<svg width="36" height="34" viewBox="0 0 36 34" fill="none" xmlns="http://www.w3.org/2000/svg">
<path fill-rule="evenodd" clip-rule="evenodd" d="M30.7778 3.43575L23.6063 4.64128L9.76345 20.3283L8.38856 18.9535L6.34665 20.9954L7.84906 22.4978L3.92244 26.9475L7.26603 30.2911L11.7158 26.3645L13.0269 27.6756L15.0688 25.6337L13.8852 24.4501L29.5723 10.6073L30.7778 3.43575ZM2.40717 25.4326L8.8387 31.8642L6.79679 33.9061L0.365262 27.4745L2.40717 25.4326Z" fill="#D1B06B"/>
<path fill-rule="evenodd" clip-rule="evenodd" d="M6.04904 10.446L4.82227 3.29575L11.9726 4.52252L16.7533 9.9354L11.7149 15.4503L6.04904 10.446ZM14.6189 18.0152L21.7292 24.2952L20.4232 25.6012L22.4651 27.6431L23.8978 26.2105L28.346 30.1392L31.6657 26.8194L27.737 22.3713L29.1047 21.0036L27.0628 18.9617L25.8217 20.2027L19.3327 12.8557L14.6189 18.0152ZM33.2931 25.1922L26.6536 31.8317L28.6955 33.8736L35.335 27.2341L33.2931 25.1922Z" fill="#D1B06B"/>
</svg>
