<svg width="25" height="25" viewBox="0 0 25 25" fill="none" xmlns="http://www.w3.org/2000/svg">
<path d="M22.3125 1.06246H2.8125C2.37006 1.05796 1.9439 1.22916 1.62754 1.5385C1.31117 1.84783 1.13044 2.27003 1.125 2.71246V22.2912C1.13142 22.733 1.31259 23.1542 1.62884 23.4628C1.9451 23.7713 2.3707 23.942 2.8125 23.9375H22.3125C22.755 23.941 23.1808 23.7692 23.497 23.4597C23.8132 23.1501 23.9941 22.728 24 22.2856V2.70684C23.9921 2.26571 23.8104 1.84551 23.4944 1.5376C23.1784 1.22969 22.7537 1.05894 22.3125 1.06246Z" fill="#0076B2"/>
<path d="M4.21771 9.53239H7.73713V20.8564H4.21771V9.53239ZM5.97839 3.89661C6.38206 3.89661 6.77665 4.01633 7.11225 4.24064C7.44786 4.46494 7.7094 4.78374 7.86378 5.15672C8.01817 5.52969 8.05846 5.94007 7.97957 6.33595C7.90068 6.73183 7.70614 7.09542 7.42058 7.38072C7.13501 7.66601 6.77124 7.8602 6.37529 7.93872C5.97934 8.01723 5.56899 7.97655 5.19617 7.8218C4.82335 7.66706 4.5048 7.40522 4.28081 7.0694C4.05683 6.73358 3.93748 6.33887 3.93787 5.9352C3.93838 5.39436 4.15359 4.87584 4.53621 4.49358C4.91883 4.11132 5.43755 3.89661 5.97839 3.89661ZM9.94479 9.53239H13.3185V11.0871H13.3651C13.8354 10.197 14.982 9.25837 16.6941 9.25837C20.2582 9.2506 20.9189 11.5963 20.9189 14.6376V20.8564H17.3995V15.347C17.3995 14.0352 17.3762 12.3464 15.5708 12.3464C13.7654 12.3464 13.4584 13.7767 13.4584 15.2615V20.8564H9.94479V9.53239Z" fill="white"/>
</svg>
