<svg width="125" height="125" viewBox="0 0 125 125" fill="none" xmlns="http://www.w3.org/2000/svg">
<g clip-path="url(#clip0_389_185)">
<rect width="1520" height="1520" fill="#EDB522"/>
<path d="M0 62.5V125H62.5H125V62.5V-4.47035e-06H62.5H0V62.5ZM67.6645 19.5724C68.0263 19.9013 68.4211 20.5263 68.7336 21.2829C70.0493 24.4408 70.0658 26.6447 68.7829 26.6447C68.5362 26.6447 67.8783 26.4309 67.3026 26.1513C66.1184 25.5921 65.773 25.0329 65.7401 23.6184C65.7237 22.8618 66.0691 19.8026 66.2171 19.2763C66.3158 18.9145 67.0888 19.0625 67.6645 19.5724ZM41.3158 21.3322C41.7763 22.1217 43.4375 27.2533 43.5362 28.1579C43.602 28.9474 43.5691 29.0954 43.1086 29.7368C42.1053 31.0855 41.3816 31.0362 40.3454 29.5395C39.5066 28.3059 39.2599 27.2368 39.3586 25.1809C39.4408 23.5197 39.8849 21.6447 40.3289 21.0855C40.6086 20.7566 41.0362 20.8553 41.3158 21.3322ZM58.9638 25.9868C61.6612 26.8914 62.2368 27.4342 62.4507 29.2599C62.5658 30.296 62.352 30.5921 61.4803 30.5921C60.6086 30.5921 59.6382 30.0658 58.6184 29.0132C57.5658 27.9441 56.7599 26.0197 57.1875 25.6085C57.3355 25.4441 57.3355 25.4441 58.9638 25.9868ZM76.4474 27.2368C76.9243 27.3684 76.9079 27.7303 76.3816 28.5362C75.329 30.1316 74.1776 30.9375 73.5033 30.5921C73.0757 30.3618 72.5329 29.4737 72.5329 28.9967C72.5329 28.4539 73.4375 27.5164 74.1447 27.3355C74.852 27.1382 75.9211 27.1053 76.4474 27.2368ZM69.8684 29.7697C70.9868 30.2632 72.2204 31.5954 72.7138 32.8618C72.9605 33.5033 73.0921 34.3092 73.1579 35.4605C73.2566 37.5 72.9934 38.4704 71.9572 40.0493C71.5461 40.6743 71.2171 41.3158 71.2171 41.4638C71.2171 42.0066 71.8257 42.4507 73.2566 42.977C74.0625 43.273 74.7533 43.602 74.8026 43.7007C74.9178 44.0625 74.0625 44.2434 72.352 44.2434C70.3454 44.2434 68.5197 43.8816 67.1217 43.2237C66.0362 42.6974 64.4737 41.3487 64.4737 40.921C64.4737 40.773 65.0658 40.4276 66.1349 39.9671C67.1546 39.5395 68.0428 39.0296 68.4211 38.6678C69.2763 37.8618 69.6382 36.5954 69.5395 34.8026C69.4079 32.5822 68.4211 31.1513 66.5296 30.4441C66.0855 30.2796 65.7072 30.0329 65.7072 29.9178C65.7072 29.1776 68.3059 29.0789 69.8684 29.7697ZM45.8717 33.0921C46.1184 33.9309 46.4638 35.7895 47.5329 42.352C48.7007 49.3914 50.0164 56.1678 50.9704 60C51.3487 61.4803 51.6447 62.7796 51.6447 62.9112C51.6447 63.3059 50.8717 63.2072 50.5757 62.7796C50.4441 62.5822 49.6217 61.3651 48.7664 60.0822C47.023 57.4507 46.7928 56.8914 44.5888 49.7039C41.5461 39.8026 40.8882 36.7105 41.4638 35.0658C41.6612 34.4737 42.7796 33.602 44.0954 32.977C45.3125 32.4178 45.6579 32.4342 45.8717 33.0921ZM57.0066 33.7171C60.0329 34.1118 60.4276 34.2434 60.4934 35C60.5592 35.625 59.8684 36.9901 59.3421 37.3191C58.7171 37.6974 57.5822 37.5658 56.3322 36.9408C54.9342 36.25 54.4079 35.7237 53.9638 34.5724C53.4211 33.2072 53.3059 33.2401 57.0066 33.7171ZM78.5197 33.9803C79.2599 34.2599 78.1579 35.7895 76.727 36.4638C75.7401 36.9243 74.9178 36.3651 74.5888 35C74.4408 34.4079 74.8026 34.2434 76.727 34.0625C77.5493 33.9803 78.2237 33.9145 78.2401 33.898C78.2566 33.898 78.3717 33.9309 78.5197 33.9803ZM38.7336 38.7829C38.6842 39.0132 38.6349 40.3618 38.6349 41.7763C38.6513 44.9507 38.9967 46.8585 39.9507 48.7829C40.5757 50.0164 41.6776 51.2993 42.6809 51.9243C43.0099 52.1217 42.9934 52.1382 42.6316 52.4507C42.1382 52.8783 41.2993 53.125 39.9507 53.2401C38.0099 53.4046 36.6447 52.4013 36.1842 50.4605C35.8717 49.1776 36.0691 45.5428 36.5625 43.4046C37.023 41.4474 37.5658 39.6546 37.8454 39.0954C38.3388 38.1414 38.9474 37.9276 38.7336 38.7829ZM80.8388 45.5428C83.4211 46.8092 86.0033 49.5066 87.4671 52.4507L88.2401 53.9967V55.7401C88.2401 57.3026 88.1908 57.5822 87.7961 58.4046C86.0691 61.9079 82.4671 62.9441 70.148 63.5033C67.8947 63.602 65.4441 63.7829 64.7204 63.898C63.9474 64.0296 63.3388 64.0461 63.2566 63.9638C63.0099 63.7336 64.0789 62.7138 65.2303 62.0724C66.6612 61.2664 70.8224 59.6382 75.6086 58.0099C77.8947 57.2368 80.1151 56.4145 80.5592 56.1842C82.7961 55.0493 83.3388 53.7993 82.5 51.7599C81.9901 50.5263 80.5428 48.1085 79.375 46.5625C78.2895 45.1151 78.1908 44.6382 78.9967 44.8026C79.2763 44.852 80.1151 45.1974 80.8388 45.5428ZM56.6447 46.7599C56.9737 47.0066 56.9737 46.9901 56.5789 49.2599C56.2007 51.4145 56.8257 54.7204 57.8454 55.9211C58.2072 56.3487 58.3553 56.4145 59.1118 56.4145C60.1151 56.4145 60.2961 56.2993 62.0559 54.6546C65.4441 51.5132 69.1283 49.3585 74.3092 47.5329C76.1349 46.8914 76.3816 46.9737 75.8388 48.0757C75.0493 49.7039 69.4408 55.7895 66.2829 58.4211C63.6349 60.6414 61.0362 61.5789 58.6513 61.2007C57.4013 61.0033 55.6743 60.2632 55.1809 59.7039C54.7862 59.2763 54.7862 58.602 55.1645 56.5954C55.3618 55.5099 55.4441 54.4737 55.3947 53.1579C55.3454 51.3487 55.3289 51.2664 54.8849 50.9046C54.6382 50.6908 54.1612 50.4605 53.8158 50.4112C52.6809 50.2303 52.4836 50.1645 52.2368 49.9013C51.7928 49.4737 51.9408 49.1447 53.0263 48.0921C54.3586 46.7763 55.9046 46.2171 56.6447 46.7599ZM20.5099 69.2105C21.9079 71.102 26.6776 76.9079 28.1743 78.5362L29.227 79.6875L30.0658 76.2336C30.8388 73.0428 31.6447 69.227 31.7763 68.2566C31.8257 67.8783 31.8914 67.8454 32.6974 67.8289C33.4375 67.8125 33.5691 67.8618 33.5033 68.0757C32.4507 71.5954 29.9671 81.1349 29.7368 82.4671C29.7039 82.648 29.6053 82.8125 29.5066 82.8454C29.4079 82.8783 28.5855 81.9901 27.6974 80.8882C24.852 77.3355 19.5559 71.0526 19.4243 71.0526C19.2599 71.0526 17.7632 77.0395 17.1053 80.2632L16.6612 82.4836L15.7401 82.5329L14.8355 82.5822L15.3947 80.8059C16.0855 78.6513 17.3355 74.0789 18.273 70.3454C18.6513 68.7993 19.0296 67.5987 19.1447 67.5987C19.2434 67.6151 19.852 68.3388 20.5099 69.2105ZM77.3191 68.4211C77.7138 68.9638 77.5658 69.5066 76.9408 69.8355C76.0855 70.2796 75 69.7368 75 68.8816C75 67.9276 76.7105 67.5822 77.3191 68.4211ZM55 71.0855C54.7862 71.8257 54.6053 72.4507 54.6053 72.4836C54.6053 72.5164 55.1974 72.5329 55.9211 72.5329C56.6447 72.5329 57.2368 72.5822 57.2368 72.648C57.2368 72.7303 57.1875 72.9441 57.1382 73.1414C57.0395 73.4868 56.9737 73.5033 55.6908 73.4046L54.3421 73.3059L53.5691 76.5296C52.8289 79.6217 52.6809 80.5921 52.8947 81.1678C53.1579 81.8257 54.7697 82.1546 55.8224 81.7434C56.2336 81.5954 56.2664 81.6118 56.2171 81.9408C56.1513 82.4178 55.2961 82.6974 53.8158 82.7138C52.4507 82.7303 51.6941 82.4836 51.1842 81.8257C50.6579 81.1513 50.7237 80.4605 51.6447 76.9079C52.1053 75.1645 52.4671 73.6513 52.4671 73.5526C52.4671 73.4211 52.1711 73.3553 51.6612 73.3553C50.9046 73.3553 50.8717 73.3388 50.9539 72.9441C51.0197 72.5658 51.102 72.5329 51.8092 72.5329C52.6809 72.5329 52.7138 72.5 52.8783 71.3487C53.0263 70.3618 53.0757 70.3125 54.0296 70.0164C55.477 69.5888 55.4441 69.5559 55 71.0855ZM108.849 72.2862L109.688 72.5493L109.326 73.3224C109.128 73.75 108.947 74.1283 108.931 74.1612C108.914 74.1941 108.651 73.9638 108.355 73.6349C107.056 72.2697 104.457 72.9276 104.178 74.7039C104.03 75.5263 104.556 76.0362 106.25 76.727C108.487 77.648 109.145 78.6349 108.487 80.148C108.174 80.8882 107.138 81.8257 106.201 82.2368C104.671 82.9112 102.434 82.9934 100.938 82.4178L100.461 82.2368L100.839 81.6118C101.382 80.7072 101.398 80.6908 101.924 81.2171C102.796 82.0888 104.918 82.2368 105.97 81.4967C106.48 81.1349 106.908 80.3947 106.908 79.8355C106.908 79.1776 106.414 78.7336 105.082 78.1908C103.059 77.3684 102.467 76.7928 102.467 75.5921C102.467 73.125 105.806 71.3816 108.849 72.2862ZM44.852 72.4507C45.8553 72.7467 46.9408 73.5197 47.3684 74.227C48.4539 76.0033 47.9934 78.5362 46.2171 80.477C44.7039 82.1382 42.8783 82.7961 40.148 82.6974C38.1086 82.6151 36.9901 82.2204 36.1678 81.2829C35.4276 80.4441 35.148 79.6711 35.1645 78.4539C35.1645 75.8388 37.023 73.4868 39.8849 72.5C40.9539 72.1382 43.6842 72.1053 44.852 72.4507ZM67.023 72.5164C68.7171 73.2895 68.8651 74.0461 67.9605 77.4013C67.0395 80.8059 67.023 80.8553 67.352 81.3651C67.5987 81.727 67.7138 81.7763 68.273 81.6941C68.7993 81.6283 68.9145 81.6612 68.9145 81.8914C68.9145 82.2368 67.977 82.5658 66.9901 82.5658C66.2664 82.5658 65.5592 82.1217 65.3783 81.5789C65.2796 81.2664 65.2632 81.2664 64.7368 81.6612C63.7664 82.4013 62.6974 82.7632 61.4474 82.7796C57.4178 82.8289 56.7928 79.0789 60.5921 77.648C61.0855 77.4671 62.5164 77.1217 63.75 76.9079C65 76.6776 66.1184 76.3816 66.25 76.25C66.3816 76.1349 66.5296 75.6743 66.5625 75.2632C66.6941 74.0789 66.0691 73.3882 64.6382 73.125C63.5197 72.9276 62.3191 73.3224 60.8224 74.375C60.4112 74.6711 60.3125 74.4572 60.5757 73.7993C60.8717 73.125 60.9211 73.0921 62.3191 72.5987C63.7336 72.0888 66.0197 72.0559 67.023 72.5164ZM86.5625 72.8125C86.3651 74.0296 86.2665 74.1776 85.6743 74.0132C84.6053 73.7007 83.1743 74.3914 82.5 75.5263C82.0724 76.25 81.0691 79.6546 80.7237 81.5296L80.5428 82.5658H79.4737C78.5362 82.5658 78.4375 82.5329 78.5362 82.2697C78.8322 81.5132 80.0987 76.6447 80.5263 74.6382L81.0033 72.3684H82.023H83.0428L82.7138 73.3059C82.2368 74.7039 82.3191 74.7862 83.273 73.8158C84.2599 72.8125 85.3454 72.2039 86.1349 72.2039C86.6447 72.2039 86.6612 72.2204 86.5625 72.8125ZM97.3355 72.7796C97.829 73.0428 98.3553 73.4539 98.5197 73.7007C99.0461 74.4079 99.2599 75.4934 99.079 76.4967L98.9309 77.3849L94.4737 77.4342L90.0165 77.4671L89.9013 78.1086C89.6382 79.7697 90.5099 81.25 92.0395 81.7434C93.0592 82.0888 95.3125 81.8914 96.4474 81.3651C96.9737 81.1184 97.4507 80.9539 97.4836 80.9868C97.5329 81.0362 97.4671 81.2664 97.3355 81.5296C96.9572 82.3191 95.7401 82.648 93.0921 82.648C91.1184 82.648 90.7895 82.5987 90.1974 82.2862C89.1612 81.727 88.5526 81.1513 88.1579 80.3289C87.8454 79.6875 87.7961 79.375 87.8618 78.0757C87.9112 76.7434 87.9934 76.4474 88.4868 75.5263C89.704 73.2401 91.7434 72.1711 94.7368 72.2533C96.2829 72.3026 96.5625 72.352 97.3355 72.7796ZM76.4145 72.648C75.9046 73.9474 74.8355 78.0428 73.9309 82.1875C73.8487 82.5329 73.75 82.5658 72.7796 82.5658C72.1875 82.5658 71.7105 82.5 71.7105 82.4342C71.7105 82.352 71.8586 81.8586 72.0395 81.3322C72.5 80.0164 73.2566 77.0888 73.7665 74.7533C74.0132 73.6678 74.227 72.6809 74.2599 72.5658C74.3092 72.4342 74.6875 72.3684 75.4276 72.3684C76.3816 72.3684 76.4967 72.4013 76.4145 72.648ZM36.3487 88.1908C36.1842 88.7664 35.625 90.9704 35.1151 93.0921C34.5888 95.2138 34.1447 97.0559 34.1118 97.1546C34.0789 97.2862 33.7993 97.3684 33.4539 97.3684C32.8947 97.3684 32.8618 97.3355 32.9605 96.9572C33.0921 96.4474 33.0592 96.4474 32.3191 96.9408C30.7895 97.9934 28.4868 97.5164 27.6974 96.0197C27.0724 94.8026 27.7467 92.6809 29.0789 91.6612C30.6414 90.477 32.9112 90.4934 33.8487 91.6941C34.0461 91.9408 34.2105 92.1053 34.2105 92.0559C34.2105 91.9243 35.1974 87.6316 35.2796 87.3684C35.3289 87.2533 35.625 87.1711 36.0033 87.1711H36.6447L36.3487 88.1908ZM57.8947 88.3882V88.7664L56.0362 88.6842L54.1776 88.602L53.7336 90.2467C53.4868 91.1513 53.2895 91.9408 53.2895 91.9901C53.2895 92.0559 54.1118 92.1053 55.0987 92.1053C56.7928 92.1053 56.9079 92.1217 56.9079 92.4342C56.9079 92.7303 56.7763 92.7632 54.9836 92.7961L53.0428 92.8454L52.5822 94.7368C52.3355 95.773 52.1053 96.7928 52.0559 96.9901C51.9737 97.3191 51.8586 97.3684 51.2171 97.3684C50.5757 97.3684 50.477 97.3191 50.5592 97.0724C51.0197 95.5921 52.0559 91.6447 52.3849 90.148C52.6316 89.1118 52.8454 88.2072 52.8947 88.125C52.9441 88.0592 54.0789 87.9934 55.4441 87.9934H57.8947V88.3882ZM42.4178 90.9539C43.5855 91.2829 44.2599 92.3849 43.9967 93.5691L43.8816 94.0789H41.1184C38.3717 94.0789 38.3553 94.0789 38.2566 94.4572C38.125 95.0164 38.4211 95.9375 38.898 96.3816C39.5066 96.9572 41.102 97.0395 42.1711 96.5789C42.7796 96.2993 42.9276 96.2829 42.9276 96.4638C42.9276 96.9901 42.1053 97.2697 40.477 97.3355C39.0789 97.3849 38.8322 97.3355 38.2401 97.0066C35.8388 95.625 36.8092 91.8586 39.8026 90.9375C40.3947 90.7566 41.7763 90.7566 42.4178 90.9539ZM62.9605 91.3158C62.9112 91.8257 62.8618 91.8586 62.1711 91.9408C60.6743 92.1217 60.3454 92.5987 59.6217 95.5099L59.1776 97.3684H58.5197C57.9605 97.3684 57.8783 97.3191 57.977 97.0724C58.0428 96.9243 58.3882 95.5757 58.75 94.0789C59.1283 92.5822 59.4408 91.2664 59.4737 91.1513C59.5395 90.9375 60.6908 90.8717 60.6908 91.0855C60.6908 91.1513 60.625 91.4638 60.5263 91.7599L60.3618 92.3355L60.9046 91.8092C61.5132 91.2336 62.2862 90.7895 62.7138 90.7895C62.9605 90.7895 63.0099 90.9046 62.9605 91.3158ZM69.2105 91.1184C70.0987 91.6612 70.148 92.0395 69.5724 94.1776C68.9967 96.2993 69.0296 96.7105 69.7533 96.7105C70.4441 96.7105 70.3454 96.9901 69.5888 97.2039C68.8651 97.3849 68.1908 97.2204 68.0428 96.8092C67.9605 96.5954 67.8289 96.6283 67.1711 96.9901C66.2171 97.5164 64.8026 97.5987 64.1283 97.1546C63.5526 96.7599 63.2566 96.0691 63.4539 95.5428C63.8158 94.6053 64.8191 94.0625 66.7763 93.75C68.2566 93.5197 68.75 93.2401 68.75 92.6645C68.75 92.023 68.4704 91.6612 67.8454 91.4474C67.1382 91.2171 66.398 91.3487 65.5921 91.875C65.2467 92.0888 64.9507 92.2697 64.9013 92.2697C64.7533 92.2697 65.0164 91.6118 65.2303 91.4309C66.0526 90.7566 68.3224 90.5757 69.2105 91.1184ZM78.1579 90.9539C78.8651 91.1513 79.4408 91.8092 79.4408 92.4178C79.4408 92.648 79.1941 93.8487 78.8816 95.0658C78.3388 97.1875 78.3059 97.2862 77.8783 97.3355C76.9901 97.4507 76.9737 97.3355 77.5 95.6908C77.7961 94.7533 77.9934 93.75 78.0099 93.0921L78.0428 92.023L77.4342 91.727C76.7105 91.3651 75.9211 91.4638 75.1151 92.0066C74.4408 92.4671 74.2599 92.8618 73.6678 95.1809C73.4046 96.2171 73.1579 97.1382 73.0921 97.2204C73.0428 97.3026 72.7467 97.3684 72.4178 97.3684C71.9408 97.3684 71.8586 97.3191 71.9572 97.0724C72.0559 96.8257 73.1086 92.7138 73.4211 91.398C73.5033 91.0197 73.602 90.9539 74.1118 90.9539C74.6711 90.9539 74.704 90.9868 74.6053 91.3816L74.4901 91.8092L75.0822 91.4474C76.1349 90.8059 77.0559 90.6579 78.1579 90.9539ZM88.0757 90.9704C88.7665 91.1513 88.7829 91.1678 88.602 91.5954C88.5033 91.8257 88.4046 92.0559 88.3882 92.0888C88.3553 92.1217 88.0921 91.9737 87.7961 91.7599C87.352 91.4474 87.0395 91.3651 86.1513 91.3651C85.2138 91.3651 84.9671 91.4309 84.3421 91.8586C83.4375 92.5 82.8947 93.5362 82.8947 94.6711C82.8947 95.6086 83.2566 96.2171 84.0461 96.6283C84.6382 96.9408 86.0691 96.9408 86.9243 96.6283C87.7796 96.3158 87.8783 96.3158 87.6809 96.6941C87.4178 97.1546 86.6283 97.3684 85.1316 97.3684C82.5165 97.352 81.4309 96.3651 81.579 94.1612C81.6612 92.9112 82.6974 91.6776 84.1118 91.1349C85.0658 90.7566 86.9408 90.6908 88.0757 90.9704ZM95.6743 91.102C96.5296 91.4967 96.9079 92.1711 96.8421 93.2237L96.7928 93.9967L93.9638 94.0461L91.1184 94.0789V94.7533C91.1184 95.5921 91.4967 96.3158 92.1053 96.6283C92.7632 96.9737 94.079 96.9408 95.0658 96.5625C95.9046 96.25 96.0526 96.2829 95.6908 96.7434C95.3618 97.1382 94.4572 97.3684 93.1415 97.3684C91.7599 97.3684 91.0691 97.1382 90.3947 96.398C89.3586 95.3125 89.7862 92.7632 91.1513 91.7105C92.3849 90.773 94.3586 90.5099 95.6743 91.102ZM69.8191 104.951C71.6118 105.444 71.4145 106.546 69.3421 107.566C68.3388 108.059 68.2237 108.092 66.9901 107.977C65.0822 107.829 61.0033 107.253 59.0461 106.891C56.3816 106.365 56.102 106.086 57.8618 105.691C58.7993 105.493 61.6447 105.099 63.8158 104.885C65.2138 104.737 69.227 104.786 69.8191 104.951Z" fill="#002139"/>
<path d="M40.8553 73.1579C38.75 73.898 37.2862 76.2171 37.2698 78.8651C37.2533 80.9211 38.125 81.8914 40.1316 82.0395C41.5954 82.1382 42.6645 81.7763 43.7336 80.8224C45.1974 79.5066 46.1678 76.7928 45.7402 75.1974C45.2138 73.2895 43.0757 72.4013 40.8553 73.1579Z" fill="#002139"/>
<path d="M63.6677 77.648C61.8914 78.0263 61.069 78.4046 60.4605 79.1118C59.2434 80.5592 60.7236 82.2039 62.796 81.727C63.6184 81.5461 64.1776 81.2664 64.8519 80.7072C65.2138 80.3947 65.3947 80 65.7072 78.8158L66.0855 77.3026L65.6414 77.3191C65.4111 77.3191 64.523 77.4671 63.6677 77.648Z" fill="#002139"/>
<path d="M93.0922 73.1085C92.0231 73.4539 91.2172 74.1941 90.6251 75.3783L90.1152 76.398L90.9869 76.5131C92.1383 76.6447 96.1843 76.6447 96.7106 76.4967C97.0725 76.398 97.1218 76.2829 97.1712 75.4934C97.2205 74.4901 96.8751 73.75 96.1514 73.273C95.5758 72.8947 93.9968 72.8125 93.0922 73.1085Z" fill="#002139"/>
<path d="M30.7566 91.5462C29.6053 92.0397 28.9638 93.0594 28.8322 94.5561C28.6842 96.2009 29.3092 96.941 30.773 96.9245C32.4013 96.9081 33.5362 95.6087 33.6842 93.6022C33.7664 92.2864 33.5855 91.8423 32.8125 91.5134C32.1053 91.2173 31.4803 91.2337 30.7566 91.5462Z" fill="#002139"/>
<path d="M39.8519 91.5625C39.2763 91.8914 38.7499 92.4835 38.5855 93.0427C38.421 93.5362 38.7828 93.6184 40.9539 93.5526L42.6809 93.5033L42.7302 92.8125C42.7795 92.2368 42.6973 92.023 42.3684 91.694C41.8585 91.1842 40.6578 91.1348 39.8519 91.5625Z" fill="#002139"/>
<path d="M67.2367 94.1776C65.263 94.5559 64.4571 95.148 64.7038 96.1019C64.819 96.5954 65.6249 96.9243 66.3815 96.7763C67.2532 96.6118 67.9111 95.921 68.1742 94.9013C68.3058 94.4079 68.388 93.9967 68.3716 93.9967C68.3551 93.9802 67.8453 94.0625 67.2367 94.1776Z" fill="#002139"/>
<path d="M92.6644 91.5953C92.1545 91.9078 91.5953 92.5822 91.3979 93.1249C91.2663 93.5197 91.5788 93.5854 93.5854 93.5854C95.2301 93.5854 95.3946 93.5526 95.5591 93.2401C95.8223 92.7631 95.6084 92.0065 95.115 91.6118C94.5558 91.1841 93.3551 91.1677 92.6644 91.5953Z" fill="#002139"/>
</g>
<defs>
<clipPath id="clip0_389_185">
<rect width="125" height="125" fill="white"/>
</clipPath>
</defs>
</svg>
