<svg width="335" height="400" viewBox="0 0 335 400" fill="none" xmlns="http://www.w3.org/2000/svg">
<path fill-rule="evenodd" clip-rule="evenodd" d="M194.059 1.61246C193.504 2.56943 192.584 11.4765 192.017 21.4034C191.036 38.5372 191.181 39.6791 194.862 43.8498C199.196 48.7621 208.883 52.8 212.645 51.2631C216.532 49.6742 215.686 34.063 210.961 20.152C206.015 5.59472 197.299 -3.96772 194.059 1.61246ZM25.3611 20.0712C21.6108 29.8204 20.2517 50.6383 22.7271 60.3875C25.2245 70.2174 32.0842 78.8714 37.3791 78.8714C41.7331 78.8714 48.146 70.0397 48.1578 64.0286C48.1612 62.2835 45.0635 50.9723 41.2711 38.8927C32.0016 9.35433 30.2698 7.30575 25.3611 20.0712ZM135.851 48.2127C135.851 58.382 148.803 75.5121 158.44 78.0868C166.47 80.2323 168.745 78.5195 168.598 70.4383C168.408 59.9404 164.479 54.6493 153.68 50.3475C137.881 44.0545 135.851 43.8103 135.851 48.2127ZM242.086 58.6298C237.509 61.1003 236.069 63.0752 235.671 67.4255C235.105 73.6269 238.772 78.8714 243.678 78.8714C247.71 78.8714 261.001 63.3787 260.308 59.4862C259.537 55.1592 249.401 54.6834 242.086 58.6298ZM192.395 72.2463C189.215 74.7958 189.351 75.0274 195.707 77.8552C209.924 84.1804 215.773 95.0104 214.807 113.22C213.967 129.05 210.763 133.714 195.248 141.691C188.548 145.139 183.066 148.913 183.066 150.08C183.066 153.981 196.464 164.474 205.416 167.587C220.416 172.801 248.831 173.645 248.831 168.878C248.831 168.108 244.153 165.519 238.437 163.123C224.323 157.209 223.345 155.019 229.935 144.083C232.85 139.246 236.15 131.068 237.268 125.91C241.378 106.959 232.872 82.0439 219.847 74.8766C211.315 70.1797 196.717 68.7811 192.395 72.2463ZM47.9049 97.7538C43.588 100.147 38.4567 104.271 36.5006 106.918C30.6003 114.904 32.7841 129.343 48.4141 185.699C66.5365 251.038 70.4065 261.705 83.5105 282.424C90.1477 292.918 96.166 301.504 96.8843 301.504C99.9584 301.504 99.8286 298.647 96.0446 283.013C89.6789 256.714 80.9255 208.932 71.7757 150.53C67.1115 120.76 62.8807 95.6891 62.3748 94.8183C60.8588 92.2078 56.203 93.1522 47.9049 97.7538ZM113.929 101.946C113.929 116.692 143.055 132.334 151.66 122.209C155.18 118.067 157.809 108.772 156.231 106.052C155.584 104.936 147.508 102.813 138.286 101.334C116.211 97.7898 113.929 97.8472 113.929 101.946ZM254.733 103.813C248.759 104.781 248.042 105.417 248.462 109.394C249.148 115.897 254.404 120.872 259.217 119.57C264.325 118.189 274.125 108.614 274.125 105.006C274.125 102.022 268.093 101.65 254.733 103.813ZM9.69729 142.16C0.343532 168.896 -3.04419 209.954 3.10733 222.026C6.88458 229.437 13.9062 233.278 23.6832 233.278C31.1619 233.278 43.1057 229.333 43.1057 226.863C43.1057 226.197 39.8141 222.566 35.7924 218.796C22.1791 206.039 15.4222 182.071 16.4238 150.096C17.0562 129.906 14.8826 127.341 9.69729 142.16ZM272.439 177.85C272.439 178.963 276.149 185.223 280.683 191.764C290.57 206.02 301.107 227.558 301.099 233.488C301.089 240.873 295.249 248.512 285.728 253.597C280.737 256.261 261.858 263.766 243.772 270.271C225.687 276.777 204.453 285.29 196.587 289.189C176.22 299.279 167.657 308.614 180.959 306.224C184.437 305.598 202.459 304.292 221.008 303.321C271.714 300.667 299.999 296.075 314.366 288.164C333.065 277.869 340.573 250.458 330.524 229.159C320.54 207.991 303.896 189.549 287.185 181.132C275.854 175.424 272.439 174.663 272.439 177.85ZM117.705 191.36C111.241 194.752 101.668 205.777 102.597 208.76C102.953 209.901 105.08 211.37 107.322 212.024C121.023 216.018 121.534 216.347 123.622 222.543C125.849 229.156 125.172 247.37 122.155 261.949C119.587 274.357 121.16 277.777 131.821 282.973C149.196 291.442 169.603 288.051 187.995 273.635C207.858 258.065 251.237 208.621 255.497 196.696C257.242 191.807 257.168 191.719 252.295 192.859C245.29 194.499 223.758 203.467 213.104 209.183C198.376 217.089 183.034 228.418 168.733 241.952C149.526 260.127 142.215 260.685 135.488 244.492C131.365 234.571 129.579 210.332 132.224 200.181C135.215 188.699 129.45 185.196 117.705 191.36ZM174.635 379.844C172.316 380.201 163.59 381.4 155.243 382.51C146.896 383.62 138.169 385.322 135.851 386.291L131.635 388.054L135.846 389.771C142.287 392.397 175.326 398.03 192.451 399.421C205.986 400.522 208.522 400.238 214.586 396.943C225.535 390.997 226.753 383.418 217.213 380.598C211.325 378.856 184.183 378.377 174.635 379.844Z" fill="white"/>
</svg>
