<svg width="24" height="25" viewBox="0 0 24 25" fill="none" xmlns="http://www.w3.org/2000/svg">
<path d="M7.2 12.5C9.52125 12.5 11.4 10.1516 11.4 7.25C11.4 4.34844 9.52125 2 7.2 2C4.87875 2 3 4.34844 3 7.25C3 10.1516 4.87875 12.5 7.2 12.5ZM10.08 14H9.76875C8.98875 14.4688 8.1225 14.75 7.2 14.75C6.2775 14.75 5.415 14.4688 4.63125 14H4.32C1.935 14 0 16.4188 0 19.4V20.75C0 21.9922 0.80625 23 1.8 23H12.6C13.5938 23 14.4 21.9922 14.4 20.75V19.4C14.4 16.4188 12.465 14 10.08 14ZM18 12.5C19.9875 12.5 21.6 10.4844 21.6 8C21.6 5.51562 19.9875 3.5 18 3.5C16.0125 3.5 14.4 5.51562 14.4 8C14.4 10.4844 16.0125 12.5 18 12.5ZM19.8 14H19.6575C19.1363 14.225 18.585 14.375 18 14.375C17.415 14.375 16.8638 14.225 16.3425 14H16.2C15.435 14 14.73 14.2766 14.1112 14.7219C15.0262 15.9547 15.6 17.5906 15.6 19.4V21.2C15.6 21.3031 15.5813 21.4016 15.5775 21.5H22.2C23.1938 21.5 24 20.4922 24 19.25C24 16.3484 22.1213 14 19.8 14Z" fill="black"/>
</svg>
