<?xml version="1.0" encoding="UTF-8"?>
<svg  fill="#D1B06B" id="Calque_1"  data-name="Calque 1" xmlns="http://www.w3.org/2000/svg" viewBox="0 0 243.2 288.14">
  <defs>
    <style>
      .cls-1 {
        fill: #D1B06B;
        stroke-width: 0px;
      }
    </style>
  </defs>
  <path fill="#D1B06B" class="cls-1" d="M132.24,45.43v-24.15h15.57c5.88,0,10.64-4.76,10.64-10.64s-4.76-10.64-10.64-10.64h-52.41c-5.88,0-10.64,4.76-10.64,10.64s4.76,10.64,10.64,10.64h15.57v24.15C48.88,50.84,0,103.07,0,166.54c0,67.05,54.55,121.6,121.6,121.6s121.6-54.55,121.6-121.6c0-63.46-48.88-115.7-110.96-121.11ZM121.6,266.86c-55.32,0-100.32-45-100.32-100.32s45-100.32,100.32-100.32,100.32,45,100.32,100.32-45.01,100.32-100.32,100.32Z"/>
  <path fill="#D1B06B" class="cls-1" d="M174.02,106.42c-4.43-3.86-11.15-3.4-15.01,1.03l-33.72,38.67c-1.2-.22-2.43-.35-3.69-.35-11.47,0-20.76,9.3-20.76,20.76s9.3,20.76,20.76,20.76,20.76-9.3,20.76-20.76c0-2.25-.37-4.41-1.03-6.44l33.71-38.66c3.86-4.43,3.4-11.15-1.03-15.01Z"/>
</svg>